<?xml version="1.0" encoding="UTF-8"?>
<svg id="Ebene_1" data-name="Ebene 1" xmlns="http://www.w3.org/2000/svg" xmlns:xlink="http://www.w3.org/1999/xlink" viewBox="0 0 244 153">
  <defs>
    <style>
      .cls-1 {
        fill: #000;
      }

      .cls-1, .cls-2, .cls-3, .cls-4, .cls-5, .cls-6, .cls-7, .cls-8, .cls-9, .cls-10, .cls-11, .cls-12, .cls-13, .cls-14, .cls-15, .cls-16, .cls-17 {
        stroke-width: 0px;
      }

      .cls-2 {
        stroke: #014100;
      }

      .cls-2, .cls-3, .cls-5, .cls-6, .cls-7, .cls-10, .cls-11, .cls-12, .cls-13, .cls-14, .cls-15 {
        fill: none;
      }

      .cls-2, .cls-3, .cls-5, .cls-6, .cls-10, .cls-11, .cls-12, .cls-13, .cls-14, .cls-15 {
        stroke-miterlimit: 10;
      }

      .cls-3 {
        stroke: #7b7f11;
      }

      .cls-4 {
        fill: #794302;
      }

      .cls-5 {
        stroke: #808480;
      }

      .cls-6 {
        stroke: #3d2602;
      }

      .cls-8 {
        fill: #028200;
      }

      .cls-18 {
        clip-path: url(#clippath-1);
      }

      .cls-9 {
        fill: #f5f420;
      }

      .cls-10 {
        stroke: #010501;
      }

      .cls-11 {
        stroke: gray;
      }

      .cls-12 {
        stroke: #3d2201;
      }

      .cls-13 {
        stroke: #7b7a10;
      }

      .cls-19 {
        clip-path: url(#clippath);
      }

      .cls-14 {
        stroke: #024601;
      }

      .cls-15 {
        stroke: #b79c11;
      }

      .cls-16 {
        fill: #fff;
      }

      .cls-17 {
        fill: #010901;
      }
    </style>
    <clipPath id="clippath">
      <polygon class="cls-7" points="0 0 244 0 244 153 0 153 0 0 0 0"/>
    </clipPath>
    <clipPath id="clippath-1">
      <polygon class="cls-7" points="0 0 244 0 244 153 0 153 0 0 0 0"/>
    </clipPath>
  </defs>
  <path class="cls-11" d="M14.91,107c2.2-.31,1.17,4.6,1.07,5.85"/>
  <path class="cls-5" d="M15.98,112.85c-.92,18.45,16.96,22.49,29.95,28.45"/>
  <g class="cls-19">
    <path class="cls-11" d="M45.93,141.3c5.6,2.74,11.91,6.04,17.64,7.17,10.75,2.13,20.4-.37,28.95-7.5.41-.33.97-.39,1.44-.15,7.88,4.19,16.22,6.55,25.03,7.09,11.51.71,20.68-.47,25.65-11.48.26-.57.93-.8,1.49-.52,10.35,5.25,26.35,8.23,37.11,4.83,5.79-1.83,9.8-6.22,12.03-13.17"/>
    <path class="cls-5" d="M195.27,127.57c3.11,3.44,7.54,4.37,11.91,4.55,9.45.4,17.48-4.82,20.82-13.82.8-2.18,1.02-4.86,1.59-7.32.07-.31.02-.6-.16-.87l-.48-.69c-.4-.59-.27-1.01.39-1.28,4.99-2,8.5-5,10.55-8.99,4.88-9.52-.57-19.77-10.47-23.16-.21-.07-.33-.28-.29-.49,1.81-10.09,3.48-19.66,5.01-28.73,1.4-8.27.21-11.48-5.92-16.7-.29-.25-.31-.51-.08-.8.87-1.07,2.17-2.01,2.82-2.99,2.54-3.86,3.65-8.6,1.83-13.05-2.77-6.79-8.46-10.18-17.05-10.19-40.92-.06-81.83-.06-122.74,0-9.09,0-15.39.44-18.89,1.27-12.38,2.96-19.29,9.31-26.78,20.17-13.6,19.74-27.36,39.36-41.27,58.87-6.46,9.06-2.1,21.37,8.85,23.66"/>
    <path class="cls-10" d="M195.27,127.57c.17.08.34.16.51.25"/>
    <path class="cls-3" d="M195.78,127.82c14.91,9.71,35.24-1.09,32.7-19.56-.05-.37.1-.61.46-.72,15.92-4.88,16.13-25.58.26-30.82-.61-.2-.85-.61-.73-1.24,1.95-10.53,3.72-20.6,5.3-30.23,1.29-7.81-1.22-10.68-6.57-15.15-.24-.19-.24-.55,0-.75,6.84-5.82,8.02-15.02,1.53-21.47-4.39-4.36-11.01-4.39-17.73-4.16-5.93.19-9.76.29-11.48.29-37.69-.02-75.38-.02-113.07,0-18.75,0-28.43,6.2-38.86,21.24-13.18,19.02-26.4,38.01-39.66,56.97-2.36,3.37-3.71,6.11-4.05,8.22-1.21,7.49,3.96,14.43,11.45,15.97"/>
    <path class="cls-10" d="M15.32,106.41c-.07.22-.21.42-.41.59"/>
    <path class="cls-13" d="M195.78,127.82c-.29-.25-.57-.41-.82-.46-.34-.07-.56.06-.66.4-5.89,20.35-35.17,14.04-48.94,7.22-.45-.22-.98,0-1.14.47-6.57,19.3-37.67,11.55-50.81,4.33-.21-.11-.47-.09-.65.07-8.99,7.93-19.48,10.46-31.46,7.57-2.4-.58-7.41-2.8-15.04-6.65"/>
  </g>
  <path class="cls-3" d="M46.26,140.77c-4.47-2.09-8.96-4.16-13.45-6.21-9.68-4.43-15.2-8.54-16.39-19.02"/>
  <path class="cls-13" d="M16.42,115.54l.78-7.89c.03-.34-.09-.61-.36-.81-.37-.25-.87-.4-1.52-.43"/>
  <path class="cls-10" d="M16.42,115.54l-.44-2.69M46.26,140.77l-.33.53"/>
  <path class="cls-3" d="M184.49,28.83c8.66-.02,21.87.36,32.82.07,17.07-.44,16.07-22.01.69-21.96-44.15.17-88.29.28-132.44.35-17.57.02-25.66,5.87-35.67,20.22-12.54,17.97-25.05,35.96-37.53,53.96-.02.03-.86,1.12-2.53,3.27-4.82,6.22-3.58,15.01,4.03,18.04,6.7,2.67,11.16-.9,15.01-6.5,13.85-20.11,27.84-40.12,41.99-60.03,3.57-5.03,7.21-7.2,13.14-7.21,33.49-.06,66.99-.13,100.49-.21M24.65,110.17c-1.86,9.24,6.89,17.26,16.11,15.64,29.03-5.11,85.95-15.25,170.78-30.43,9.94-1.77,10.04-7.11,11.76-16.69,2.15-12,4.28-24,6.38-36,1.3-7.44-3.62-10.43-10.29-10.43-44.52-.02-89.04-.02-133.56,0-6.71,0-9.33,1.38-13,6.57-14.44,20.41-28.75,40.92-42.92,61.51-3.09,4.49-4.84,7.76-5.26,9.83"/>
  <g class="cls-18">
    <path class="cls-15" d="M167.23,120.58c.06.15-.02.36-.24.63"/>
    <path class="cls-3" d="M166.99,121.21c-7.63-2.17-14.95-5.17-21.96-9.02-.29-.16-.63-.22-.96-.16l-49.85,8.87c-.31.05-.43.44-.2.66,4.33,4.13,9.22,7.41,14.68,9.84.16.07.24.25.18.42-.05.17-.23.26-.4.22-8.03-1.98-16.76-6.06-22.77-9.3-.29-.16-.61-.21-.94-.15l-26.67,4.69c-.35.06-.51.47-.29.74,2.48,3.14,5.58,5.55,9.31,7.24.2.09.52-.01.4.48-.09.36-.31.47-.66.34l-17.97-6.9c-.34-.13-.69-.16-1.05-.1-5.27.94-10.12,2.36-15.34.92-.21-.06-.42.05-.5.25-.07.2.02.43.21.52,6.28,2.99,12.62,5.97,19.02,8.94,6.94,3.22,12.17,5.06,15.68,5.53,9.53,1.25,17.97-1.87,25.34-9.36.13-.13.33-.15.49-.06,12.38,7.24,46.55,17.71,49.39-5.49.04-.33.4-.51.68-.34,9.51,5.66,19.69,8.39,30.55,8.19,10.91-.2,18.7-4.58,18.33-16.4,0-.31.35-.5.6-.3,3.8,3.03,8.11,6.07,12.87,6.79,13.01,1.99,23.34-9.82,19.49-22.76-.11-.37.02-.58.41-.61,14.76-1.39,17.42-19.66,3.63-25.12-.45-.18-.94.1-1.03.57-.67,3.79-1.1,8.16-2.83,11.32-4.81,8.78-14.98,8.61-23.51,10.19-.33.06-.47.45-.25.7,3,3.47,5.74,4.98,9.45,7.61.09.07.12.19.07.29-.05.11-.17.16-.28.12-5.97-2.01-11.82-4.31-17.55-6.9-.31-.14-.64-.18-.98-.12l-38.19,6.74c-.35.06-.48.49-.23.73,4.06,3.91,8.68,7.1,13.87,9.55"/>
  </g>
  <path class="cls-6" d="M166.99,121.21c.63.48,1.15.65,1.58.51.32-.11.35-.28.09-.49-.37-.31-.84-.53-1.43-.65"/>
  <path class="cls-5" d="M213.29,28.2c2.43.05,4.86-.08,7.29-.39,9.3-1.2,10.87-12.64,4.39-17.88-3.83-3.11-9.46-1.93-13.97-1.94-41.45,0-82.91,0-124.37.02-18.04,0-26,5.51-36.29,20.3-12.83,18.45-25.67,36.89-38.54,55.32-2.05,2.93-3.28,5.2-3.69,6.8-2.86,11.06,12.19,16.89,18.62,7.53,14.49-21.11,29.13-42.13,43.91-63.06,2.71-3.83,6.3-5.99,10.78-6.48,7.13-.79,16.4-.14,21.85-.19,17.39-.16,34.78-.27,52.17-.32,15.95-.05,34.11-.19,57.85.29"/>
  <path class="cls-14" d="M41.81,124.58c6.72-1.11,77.89-13.78,77.93-13.74.05.05.12.06.19.05,30.68-5.52,61.37-10.98,92.08-16.39,8.43-1.48,8.83-6.71,10.26-14.84,1.98-11.31,3.75-22.73,6.21-33.95,1.97-8.98-1.43-12.79-10.39-12.75-33.97.14-67.95.25-101.92.33-7.12.02-21.25.54-31.42-.02-5.26-.29-7.75,1.45-10.87,5.82-15.11,21.19-30.03,42.53-44.75,64-4.24,6.18-5.63,12.72.06,18.3,3.68,3.61,7.65,4.02,12.62,3.19"/>
  <path class="cls-2" d="M90.11,93.79c.32.51.89,1.15,1.72,1.91,21.48,19.65,52.51,5.98,54.32-22.47.02-.35.21-.54.56-.57,6.82-.55,13.65-1.12,20.49-1.69,3.61-.3,5.94-3.09,7.91-5.79.19-.25.43-.39.74-.42l43.81-3.83c.79-.07,1.32-.84,1.11-1.6l-.37-1.31c-.11-.39-.36-.57-.76-.52-1.93.22-3.35-.5-4.28-2.16-.17-.31-.63-.25-.72.09-.16.63-.21,1.26-.14,1.9.04.39-.14.61-.54.64l-68.22,6.1c-.4.03-.66-.14-.78-.51-11.84-36.27-63.39-27.6-62.97,9.69.02,1.45.02,2.6,0,3.47,0,.38-.19.62-.56.71l-35.61,9.79c-.51.14-.76.72-.51,1.19,4.13,7.77,4.15,15.57.07,23.39-.25.47.25.98.73.76l41.87-19.4c.89-.41,1.6-.2,2.12.63"/>
  <path class="cls-12" d="M128,73.48c13.56-1.21,27.13-2.39,40.71-3.54.32-.03.59-.16.82-.38l4.13-4.08c.31-.31.07-.84-.37-.8l-60.54,5.12c-.37.04-.68.31-.76.68l-.3,1.53c-.06.27-.29.47-.57.49-7.06.4-12.54,3.48-16.43,9.25-.83,1.23-2.56,1.43-3.64.42-4.28-3.98-8.98-3.71-14.76-2.13-8.57,2.33-17.17,4.58-25.78,6.73-1.28.32-2.53.75-3.76,1.29-.33.15-.41.38-.25.71,3.55,7.15,3.67,14.4.37,21.74-.14.32.19.65.51.5l42.17-19.84c.87-.41,1.89-.28,2.63.33,2.49,2.06,5.12,2.13,7.88.2.24-.16.41-.4.49-.68,2.01-7,6.13-11.97,12.35-14.9,4.32-2.04,10.09-2.2,15.1-2.64"/>
  <path class="cls-11" d="M128.35,74.78c-.48,8.54-13.57,10.76-17.74,4.58-.33-.48-1.01-.55-1.43-.15-2.05,1.96-4.06,3.88-5.38,6.44-1.37,2.65-2.15,6.41-4.86,7.79-4.58,2.35-5.58-1.67-8.09-1.45-.38.03-.57.48-.34.78,9.56,12.17,27.11,14.47,40.03,6.46,8.93-5.54,13.79-14.03,14.58-25.47.05-.64-.25-.93-.89-.87l-15.46,1.46c-.27.03-.41.17-.42.43M118.93,76.1l-.24,4.93c-.02.34.25.63.59.64,4.69.06,7.46-2.12,8.32-6.55.07-.34-.21-.65-.56-.62l-7.23.68c-.56.05-.85.36-.88.92M111.22,79.01c1.65,1.95,3.74,2.95,6.28,3,.4,0,.67-.41.5-.77-.77-1.67-.88-3.37-.33-5.1.14-.45-.3-.86-.74-.68l-5.38,2.19c-.74.3-.85.75-.33,1.36"/>
  <path class="cls-5" d="M135.17,60.95c-11.37-21.66-44.88-13.73-45.08,11.34-.01.1.14.48.15.49.24.23.38.18.41-.15,1.18-11.67,6.56-19.06,16.15-22.17,11.1-3.6,21.88.77,27.71,10.76.09.15.22.22.39.21.34-.02.43-.18.27-.48M124.26,59.93c-8.81-7.52-20.4-3.07-25.15,6.27-.69,1.35-1.04,2.73-1.05,4.14,0,.16.11.29.26.32.16.02.31-.06.36-.21.48-1.35.83-3.09,1.26-4.05,4.25-9.44,15.61-12.25,23.85-5.91.19.15.36.13.51-.05.15-.19.14-.36-.04-.51"/>
  <path class="cls-14" d="M91.94,135.05c.45-.43.93-.48,1.46-.15,10.26,6.58,39.47,15.74,46.75.29.83-1.77.94-3.94,1.4-6.04.07-.31.42-.47.71-.32,10.17,5.45,19.67,8.7,31.11,8.43,10.96-.27,18.24-4.55,17.18-16.5-.05-.65.68-1.06,1.2-.67,4.33,3.23,9.33,6.88,14.66,7.38,12.28,1.15,21.43-10.53,17.08-22.46-.13-.37-.01-.6.38-.67,2.35-.46,4.84-.89,6.78-1.94,9.43-5.09,7.46-17.31-1.52-21.6-.36-.17-.79.05-.85.44-2.74,17.6-8.92,18.53-25.22,21.24-.36.06-.5.51-.23.76,2.99,2.73,6.24,5.12,9.76,7.15,1.31.76,3.38,1.18,4.91,2.04.13.07.18.23.13.36-.05.14-.2.22-.34.19-8.52-1.75-16.69-4.54-24.5-8.37-.31-.15-.63-.2-.96-.14l-36.1,6.37c-.49.09-.66.71-.27,1.03,5.79,4.8,11.74,7.74,18.49,10.97.13.06.19.21.15.34-.04.14-.18.22-.32.2-11.04-1.69-19.11-5.77-29.08-10.25-.35-.16-.72-.21-1.1-.14l-46.91,8.35c-1.01.18-1.12.59-.33,1.24,5.55,4.53,11.65,8.13,18.31,10.8.16.06.24.24.19.4-.04.17-.21.27-.38.24-10.21-1.86-19.84-5.35-28.88-10.46-.22-.12-.46-.16-.71-.12l-24.15,4.2c-1.36.24-1.53.83-.52,1.77,4.05,3.76,8.51,6.27,13.98,8.48.15.06.22.22.18.37-.05.15-.21.24-.36.21-8.58-1.89-16.84-4.71-24.77-8.47-.29-.14-.6-.18-.93-.12l-10.57,1.87c-.6.11-.63.29-.08.56,8.91,4.33,21.09,11.27,30.13,12.11,8.87.82,16.92-2.3,24.14-9.37"/>
  <path class="cls-7" d="M0,0h244v153H0V0M14.91,107c2.2-.31,1.17,4.6,1.07,5.85-.92,18.45,16.96,22.49,29.95,28.45,5.6,2.74,11.91,6.04,17.64,7.17,10.75,2.13,20.4-.37,28.95-7.5.41-.33.97-.39,1.44-.15,7.88,4.19,16.22,6.55,25.03,7.09,11.51.71,20.68-.47,25.65-11.48.26-.57.93-.8,1.49-.52,10.35,5.25,26.35,8.23,37.11,4.83,5.79-1.83,9.8-6.22,12.03-13.17,3.11,3.44,7.54,4.37,11.91,4.55,9.45.4,17.48-4.82,20.82-13.82.8-2.18,1.02-4.86,1.59-7.32.07-.31.02-.6-.16-.87l-.48-.69c-.4-.59-.27-1.01.39-1.28,4.99-2,8.5-5,10.55-8.99,4.88-9.52-.57-19.77-10.47-23.16-.21-.07-.33-.28-.29-.49,1.81-10.09,3.48-19.66,5.01-28.73,1.4-8.27.21-11.48-5.92-16.7-.29-.25-.31-.51-.08-.8.87-1.07,2.17-2.01,2.82-2.99,2.54-3.86,3.65-8.6,1.83-13.05-2.77-6.79-8.46-10.18-17.05-10.19-40.92-.06-81.83-.06-122.74,0-9.09,0-15.39.44-18.89,1.27-12.38,2.96-19.29,9.31-26.78,20.17-13.6,19.74-27.36,39.36-41.27,58.87-6.46,9.06-2.1,21.37,8.85,23.66h0Z"/>
  <path class="cls-17" d="M195.27,127.57c.17.08.34.16.51.25,14.91,9.71,35.24-1.09,32.7-19.56-.05-.37.1-.61.46-.72,15.92-4.88,16.13-25.58.26-30.82-.61-.2-.85-.61-.73-1.24,1.95-10.53,3.72-20.6,5.3-30.23,1.29-7.81-1.22-10.68-6.57-15.15-.24-.19-.24-.55,0-.75,6.84-5.82,8.02-15.02,1.53-21.47-4.39-4.36-11.01-4.39-17.73-4.16-5.93.19-9.76.29-11.48.29-37.69-.02-75.38-.02-113.07,0-18.75,0-28.43,6.2-38.86,21.24-13.18,19.02-26.4,38.01-39.66,56.97-2.36,3.37-3.71,6.11-4.05,8.22-1.21,7.49,3.96,14.43,11.45,15.97-.07.22-.21.42-.41.59-10.95-2.29-15.31-14.6-8.85-23.66,13.91-19.51,27.67-39.13,41.27-58.87,7.49-10.86,14.4-17.21,26.78-20.17,3.5-.83,9.8-1.26,18.89-1.27,40.91-.05,81.82-.05,122.74,0,8.59.01,14.28,3.4,17.05,10.19,1.82,4.45.71,9.19-1.83,13.05-.65.98-1.95,1.92-2.82,2.99-.23.29-.21.55.08.8,6.13,5.22,7.32,8.43,5.92,16.7-1.53,9.07-3.2,18.64-5.01,28.73-.04.21.08.42.29.49,9.9,3.39,15.35,13.64,10.47,23.16-2.05,3.99-5.56,6.99-10.55,8.99-.66.27-.79.69-.39,1.28l.48.69c.18.27.23.56.16.87-.57,2.46-.79,5.14-1.59,7.32-3.34,9-11.37,14.22-20.82,13.82-4.37-.18-8.8-1.11-11.91-4.55h0Z"/>
  <path class="cls-9" d="M195.78,127.82c-.29-.25-.57-.41-.82-.46-.34-.07-.56.06-.66.4-5.89,20.35-35.17,14.04-48.94,7.22-.45-.22-.98,0-1.14.47-6.57,19.3-37.67,11.55-50.81,4.33-.21-.11-.47-.09-.65.07-8.99,7.93-19.48,10.46-31.46,7.57-2.4-.58-7.41-2.8-15.04-6.65-4.47-2.09-8.96-4.16-13.45-6.21-9.68-4.43-15.2-8.54-16.39-19.02l.78-7.89c.03-.34-.09-.61-.36-.81-.37-.25-.87-.4-1.52-.43-7.49-1.54-12.66-8.48-11.45-15.97.34-2.11,1.69-4.85,4.05-8.22,13.26-18.96,26.48-37.95,39.66-56.97,10.43-15.04,20.11-21.24,38.86-21.24,37.69-.02,75.38-.02,113.07,0,1.72,0,5.55-.1,11.48-.29,6.72-.23,13.34-.2,17.73,4.16,6.49,6.45,5.31,15.65-1.53,21.47-.23.2-.23.56,0,.75,5.35,4.47,7.86,7.34,6.57,15.15-1.58,9.63-3.35,19.7-5.3,30.23-.12.63.12,1.04.73,1.24,15.87,5.24,15.66,25.94-.26,30.82-.36.11-.51.35-.46.72,2.54,18.47-17.79,29.27-32.7,19.56M184.49,28.83c8.66-.02,21.87.36,32.82.07,17.07-.44,16.07-22.01.69-21.96-44.15.17-88.29.28-132.44.35-17.57.02-25.66,5.87-35.67,20.22-12.54,17.97-25.05,35.96-37.53,53.96-.02.03-.86,1.12-2.53,3.27-4.82,6.22-3.58,15.01,4.03,18.04,6.7,2.67,11.16-.9,15.01-6.5,13.85-20.11,27.84-40.12,41.99-60.03,3.57-5.03,7.21-7.2,13.14-7.21,33.49-.06,66.99-.13,100.49-.21M24.65,110.17c-1.86,9.24,6.89,17.26,16.11,15.64,29.03-5.11,85.95-15.25,170.78-30.43,9.94-1.77,10.04-7.11,11.76-16.69,2.15-12,4.28-24,6.38-36,1.3-7.44-3.62-10.43-10.29-10.43-44.52-.02-89.04-.02-133.56,0-6.71,0-9.33,1.38-13,6.57-14.44,20.41-28.75,40.92-42.92,61.51-3.09,4.49-4.84,7.76-5.26,9.83M167.23,120.58c.06.15-.02.36-.24.63-7.63-2.17-14.95-5.17-21.96-9.02-.29-.16-.63-.22-.96-.16l-49.85,8.87c-.31.05-.43.44-.2.66,4.33,4.13,9.22,7.41,14.68,9.84.16.07.24.25.18.42-.05.17-.23.26-.4.22-8.03-1.98-16.76-6.06-22.77-9.3-.29-.16-.61-.21-.94-.15l-26.67,4.69c-.35.06-.51.47-.29.74,2.48,3.14,5.58,5.55,9.31,7.24.2.09.52-.01.4.48-.09.36-.31.47-.66.34l-17.97-6.9c-.34-.13-.69-.16-1.05-.1-5.27.94-10.12,2.36-15.34.92-.21-.06-.42.05-.5.25-.07.2.02.43.21.52,6.28,2.99,12.62,5.97,19.02,8.94,6.94,3.22,12.17,5.06,15.68,5.53,9.53,1.25,17.97-1.87,25.34-9.36.13-.13.33-.15.49-.06,12.38,7.24,46.55,17.71,49.39-5.49.04-.33.4-.51.68-.34,9.51,5.66,19.69,8.39,30.55,8.19,10.91-.2,18.7-4.58,18.33-16.4,0-.31.35-.5.6-.3,3.8,3.03,8.11,6.07,12.87,6.79,13.01,1.99,23.34-9.82,19.49-22.76-.11-.37.02-.58.41-.61,14.76-1.39,17.42-19.66,3.63-25.12-.45-.18-.94.1-1.03.57-.67,3.79-1.1,8.16-2.83,11.32-4.81,8.78-14.98,8.61-23.51,10.19-.33.06-.47.45-.25.7,3,3.47,5.74,4.98,9.45,7.61.09.07.12.19.07.29-.05.11-.17.16-.28.12-5.97-2.01-11.82-4.31-17.55-6.9-.31-.14-.64-.18-.98-.12l-38.19,6.74c-.35.06-.48.49-.23.73,4.06,3.91,8.68,7.1,13.87,9.55h0Z"/>
  <path class="cls-17" d="M184.49,28.83c-33.5.08-67,.15-100.49.21-5.93,0-9.57,2.18-13.14,7.21-14.15,19.91-28.14,39.92-41.99,60.03-3.85,5.6-8.31,9.17-15.01,6.5-7.61-3.03-8.85-11.82-4.03-18.04,1.67-2.15,2.51-3.24,2.53-3.27,12.48-18,24.99-35.99,37.53-53.96,10.01-14.35,18.1-20.2,35.67-20.22,44.15-.07,88.29-.18,132.44-.35,15.38-.05,16.38,21.52-.69,21.96-10.95.29-24.16-.09-32.82-.07M213.29,28.2c2.43.05,4.86-.08,7.29-.39,9.3-1.2,10.87-12.64,4.39-17.88-3.83-3.11-9.46-1.93-13.97-1.94-41.45,0-82.91,0-124.37.02-18.04,0-26,5.51-36.29,20.3-12.83,18.45-25.67,36.89-38.54,55.32-2.05,2.93-3.28,5.2-3.69,6.8-2.86,11.06,12.19,16.89,18.62,7.53,14.49-21.11,29.13-42.13,43.91-63.06,2.71-3.83,6.3-5.99,10.78-6.48,7.13-.79,16.4-.14,21.85-.19,17.39-.16,34.78-.27,52.17-.32,15.95-.05,34.11-.19,57.85.29h0Z"/>
  <path class="cls-17" d="M40.76,125.81c-9.22,1.62-17.97-6.4-16.11-15.64.42-2.07,2.17-5.34,5.26-9.83,14.17-20.59,28.48-41.1,42.92-61.51,3.67-5.19,6.29-6.57,13-6.57,44.52-.02,89.04-.02,133.56,0,6.67,0,11.59,2.99,10.29,10.43-2.1,12-4.23,24-6.38,36-1.72,9.58-1.82,14.92-11.76,16.69-84.83,15.18-141.75,25.32-170.78,30.43M41.81,124.58c6.72-1.11,77.89-13.78,77.93-13.74.05.05.12.06.19.05,30.68-5.52,61.37-10.98,92.08-16.39,8.43-1.48,8.83-6.71,10.26-14.84,1.98-11.31,3.75-22.73,6.21-33.95,1.97-8.98-1.43-12.79-10.39-12.75-33.97.14-67.95.25-101.92.33-7.12.02-21.25.54-31.42-.02-5.26-.29-7.75,1.45-10.87,5.82-15.11,21.19-30.03,42.53-44.75,64-4.24,6.18-5.63,12.72.06,18.3,3.68,3.61,7.65,4.02,12.62,3.19h0Z"/>
  <path class="cls-8" d="M119.74,110.84s-71.21,12.63-77.93,13.74c-4.97.83-8.94.42-12.62-3.19-5.69-5.58-4.3-12.12-.06-18.3,14.72-21.47,29.64-42.81,44.75-64,3.12-4.37,5.61-6.11,10.87-5.82,10.17.56,24.3.04,31.42.02,33.97-.08,67.95-.19,101.92-.33,8.96-.04,12.36,3.77,10.39,12.75-2.46,11.22-4.23,22.64-6.21,33.95-1.43,8.13-1.83,13.36-10.26,14.84-30.71,5.41-61.4,10.87-92.08,16.39-.07,0-.14,0-.19-.05M90.11,93.79c.32.51.89,1.15,1.72,1.91,21.48,19.65,52.51,5.98,54.32-22.47.02-.35.21-.54.56-.57,6.82-.55,13.65-1.12,20.49-1.69,3.61-.3,5.94-3.09,7.91-5.79.19-.25.43-.39.74-.42l43.81-3.83c.79-.07,1.32-.84,1.11-1.6l-.37-1.31c-.11-.39-.36-.57-.76-.52-1.93.22-3.35-.5-4.28-2.16-.17-.31-.63-.25-.72.09-.16.63-.21,1.26-.14,1.9.04.39-.14.61-.54.64l-68.22,6.1c-.4.03-.66-.14-.78-.51-11.84-36.27-63.39-27.6-62.97,9.69.02,1.45.02,2.6,0,3.47,0,.38-.19.62-.56.71l-35.61,9.79c-.51.14-.76.72-.51,1.19,4.13,7.77,4.15,15.57.07,23.39-.25.47.25.98.73.76l41.87-19.4c.89-.41,1.6-.2,2.12.63h0Z"/>
  <path class="cls-1" d="M90.11,93.79c-.52-.83-1.23-1.04-2.12-.63l-41.87,19.4c-.48.22-.98-.29-.73-.76,4.08-7.82,4.06-15.62-.07-23.39-.25-.47,0-1.05.51-1.19l35.61-9.79c.37-.09.55-.33.56-.71.01-.87.01-2.02,0-3.47-.42-37.29,51.13-45.96,62.97-9.69.12.37.38.54.78.51l68.22-6.1c.4-.03.58-.25.54-.64-.07-.64-.02-1.27.14-1.9.09-.34.55-.4.72-.09.93,1.66,2.35,2.38,4.28,2.16.4-.05.65.13.76.52l.37,1.31c.21.76-.32,1.53-1.11,1.6l-43.81,3.83c-.31.03-.55.17-.74.42-1.97,2.7-4.3,5.49-7.91,5.79-6.84.57-13.67,1.14-20.49,1.69-.35.03-.54.22-.56.57-1.81,28.45-32.84,42.12-54.32,22.47-.83-.76-1.4-1.4-1.72-1.91M143.85,63.68c-4.42-16.35-22-25.94-37.7-21.42-15.84,4.57-24.44,18.5-23.03,35,.03.35.22.55.57.62,3.69.68,5.69,2,8.84,3.87.29.18.67.11.89-.15,4.81-5.82,9.16-9.26,16.28-9.82.64-.05,1.12-.58,1.11-1.22l-.06-2.99c-.01-.28.21-.52.49-.55l32.24-2.79c.34-.03.46-.22.37-.55M128,73.48c13.56-1.21,27.13-2.39,40.71-3.54.32-.03.59-.16.82-.38l4.13-4.08c.31-.31.07-.84-.37-.8l-60.54,5.12c-.37.04-.68.31-.76.68l-.3,1.53c-.06.27-.29.47-.57.49-7.06.4-12.54,3.48-16.43,9.25-.83,1.23-2.56,1.43-3.64.42-4.28-3.98-8.98-3.71-14.76-2.13-8.57,2.33-17.17,4.58-25.78,6.73-1.28.32-2.53.75-3.76,1.29-.33.15-.41.38-.25.71,3.55,7.15,3.67,14.4.37,21.74-.14.32.19.65.51.5l42.17-19.84c.87-.41,1.89-.28,2.63.33,2.49,2.06,5.12,2.13,7.88.2.24-.16.41-.4.49-.68,2.01-7,6.13-11.97,12.35-14.9,4.32-2.04,10.09-2.2,15.1-2.64M128.35,74.78c-.48,8.54-13.57,10.76-17.74,4.58-.33-.48-1.01-.55-1.43-.15-2.05,1.96-4.06,3.88-5.38,6.44-1.37,2.65-2.15,6.41-4.86,7.79-4.58,2.35-5.58-1.67-8.09-1.45-.38.03-.57.48-.34.78,9.56,12.17,27.11,14.47,40.03,6.46,8.93-5.54,13.79-14.03,14.58-25.47.05-.64-.25-.93-.89-.87l-15.46,1.46c-.27.03-.41.17-.42.43M118.93,76.1l-.24,4.93c-.02.34.25.63.59.64,4.69.06,7.46-2.12,8.32-6.55.07-.34-.21-.65-.56-.62l-7.23.68c-.56.05-.85.36-.88.92M111.22,79.01c1.65,1.95,3.74,2.95,6.28,3,.4,0,.67-.41.5-.77-.77-1.67-.88-3.37-.33-5.1.14-.45-.3-.86-.74-.68l-5.38,2.19c-.74.3-.85.75-.33,1.36h0Z"/>
  <path class="cls-16" d="M106.15,42.26c15.7-4.52,33.28,5.07,37.7,21.42.09.33-.03.52-.37.55l-32.24,2.79c-.28.03-.5.27-.49.55l.06,2.99c.01.64-.47,1.17-1.11,1.22-7.12.56-11.47,4-16.28,9.82-.22.26-.6.33-.89.15-3.15-1.87-5.15-3.19-8.84-3.87-.35-.07-.54-.27-.57-.62-1.41-16.5,7.19-30.43,23.03-35M135.17,60.95c-11.37-21.66-44.88-13.73-45.08,11.34-.01.1.14.48.15.49.24.23.38.18.41-.15,1.18-11.67,6.56-19.06,16.15-22.17,11.1-3.6,21.88.77,27.71,10.76.09.15.22.22.39.21.34-.02.43-.18.27-.48M124.26,59.93c-8.81-7.52-20.4-3.07-25.15,6.27-.69,1.35-1.04,2.73-1.05,4.14,0,.16.11.29.26.32.16.02.31-.06.36-.21.48-1.35.83-3.09,1.26-4.05,4.25-9.44,15.61-12.25,23.85-5.91.19.15.36.13.51-.05.15-.19.14-.36-.04-.51h0Z"/>
  <path class="cls-17" d="M90.09,72.29c.2-25.07,33.71-33,45.08-11.34.16.3.07.46-.27.48-.17,0-.3-.06-.39-.21-5.83-9.99-16.61-14.36-27.71-10.76-9.59,3.11-14.97,10.5-16.15,22.17-.03.33-.17.38-.41.15,0-.01-.16-.39-.15-.49h0Z"/>
  <path class="cls-17" d="M99.11,66.2c4.75-9.34,16.34-13.79,25.15-6.27.18.15.19.32.04.51-.15.18-.32.2-.51.05-8.24-6.34-19.6-3.53-23.85,5.91-.43.96-.78,2.7-1.26,4.05-.05.15-.2.23-.36.21-.15-.03-.26-.16-.26-.32.01-1.41.36-2.79,1.05-4.14h0Z"/>
  <path class="cls-4" d="M128,73.48c-5.01.44-10.78.6-15.1,2.64-6.22,2.93-10.34,7.9-12.35,14.9-.08.28-.25.52-.49.68-2.76,1.93-5.39,1.86-7.88-.2-.74-.61-1.76-.74-2.63-.33l-42.17,19.84c-.32.15-.65-.18-.51-.5,3.3-7.34,3.18-14.59-.37-21.74-.16-.33-.08-.56.25-.71,1.23-.54,2.48-.97,3.76-1.29,8.61-2.15,17.21-4.4,25.78-6.73,5.78-1.58,10.48-1.85,14.76,2.13,1.08,1.01,2.81.81,3.64-.42,3.89-5.77,9.37-8.85,16.43-9.25.28-.02.51-.22.57-.49l.3-1.53c.08-.37.39-.64.76-.68l60.54-5.12c.44-.04.68.49.37.8l-4.13,4.08c-.23.22-.5.35-.82.38-13.58,1.15-27.15,2.33-40.71,3.54h0Z"/>
  <path class="cls-16" d="M110.61,79.36c4.17,6.18,17.26,3.96,17.74-4.58,0-.26.15-.4.42-.43l15.46-1.46c.64-.06.94.23.89.87-.79,11.44-5.65,19.93-14.58,25.47-12.92,8.01-30.47,5.71-40.03-6.46-.23-.3-.04-.75.34-.78,2.51-.22,3.51,3.8,8.09,1.45,2.71-1.38,3.49-5.14,4.86-7.79,1.32-2.56,3.33-4.48,5.38-6.44.42-.4,1.1-.33,1.43.15M136.7,78.63c-4.72,14.04-19.03,22.02-33.29,14.76-.11-.05-.16-.02-.16.1,0,.11,0,.22-.01.34,0,.23.12.45.33.55,14.27,6.71,30.08-.98,33.87-16.2.08-.31-.04-.43-.35-.35-.4.1-.32.59-.39.8M123.32,85.13c-5.32,3.63-8.78,2.93-14.76,2.11-.17-.02-.33.09-.37.25-.04.17.06.34.22.39,5.63,1.89,10.82,1.11,15.58-2.34.07-.05.07-.11,0-.17-.07-.07-.13-.13-.19-.19-.15-.15-.32-.17-.49-.05h0Z"/>
  <path class="cls-16" d="M118.93,76.1c.03-.56.32-.87.88-.92l7.23-.68c.35-.03.63.28.56.62-.86,4.43-3.63,6.61-8.32,6.55-.34-.01-.61-.3-.59-.64l.24-4.93h0Z"/>
  <path class="cls-16" d="M111.22,79.01c-.52-.61-.41-1.06.33-1.36l5.38-2.19c.44-.18.88.23.74.68-.55,1.73-.44,3.43.33,5.1.17.36-.1.77-.5.77-2.54-.05-4.63-1.05-6.28-3h0Z"/>
  <path class="cls-1" d="M103.41,93.39c14.26,7.26,28.57-.72,33.29-14.76.07-.21,0-.7.39-.8.31-.08.43.04.35.35-3.79,15.22-19.6,22.91-33.87,16.2-.21-.1-.34-.32-.33-.55.01-.12.01-.23.01-.34,0-.12.05-.15.16-.1h0Z"/>
  <path class="cls-17" d="M166.99,121.21c.63.48,1.15.65,1.58.51.32-.11.35-.28.09-.49-.37-.31-.84-.53-1.43-.65-5.19-2.45-9.81-5.64-13.87-9.55-.25-.24-.12-.67.23-.73l38.19-6.74c.34-.06.67-.02.98.12,5.73,2.59,11.58,4.89,17.55,6.9.11.04.23-.01.28-.12.05-.1.02-.22-.07-.29-3.71-2.63-6.45-4.14-9.45-7.61-.22-.25-.08-.64.25-.7,8.53-1.58,18.7-1.41,23.51-10.19,1.73-3.16,2.16-7.53,2.83-11.32.09-.47.58-.75,1.03-.57,13.79,5.46,11.13,23.73-3.63,25.12-.39.03-.52.24-.41.61,3.85,12.94-6.48,24.75-19.49,22.76-4.76-.72-9.07-3.76-12.87-6.79-.25-.2-.61-.01-.6.3.37,11.82-7.42,16.2-18.33,16.4-10.86.2-21.04-2.53-30.55-8.19-.28-.17-.64,0-.68.34-2.84,23.2-37.01,12.73-49.39,5.49-.16-.09-.36-.07-.49.06-7.37,7.49-15.81,10.61-25.34,9.36-3.51-.47-8.74-2.31-15.68-5.53-6.4-2.97-12.74-5.95-19.02-8.94-.19-.09-.28-.32-.21-.52.08-.2.29-.31.5-.25,5.22,1.44,10.07.02,15.34-.92.36-.06.71-.03,1.05.1l17.97,6.9c.35.13.57.02.66-.34.12-.49-.2-.39-.4-.48-3.73-1.69-6.83-4.1-9.31-7.24-.22-.27-.06-.68.29-.74l26.67-4.69c.33-.06.65,0,.94.15,6.01,3.24,14.74,7.32,22.77,9.3.17.04.35-.05.4-.22.06-.17-.02-.35-.18-.42-5.46-2.43-10.35-5.71-14.68-9.84-.23-.22-.11-.61.2-.66l49.85-8.87c.33-.06.67,0,.96.16,7.01,3.85,14.33,6.85,21.96,9.02M91.94,135.05c.45-.43.93-.48,1.46-.15,10.26,6.58,39.47,15.74,46.75.29.83-1.77.94-3.94,1.4-6.04.07-.31.42-.47.71-.32,10.17,5.45,19.67,8.7,31.11,8.43,10.96-.27,18.24-4.55,17.18-16.5-.05-.65.68-1.06,1.2-.67,4.33,3.23,9.33,6.88,14.66,7.38,12.28,1.15,21.43-10.53,17.08-22.46-.13-.37-.01-.6.38-.67,2.35-.46,4.84-.89,6.78-1.94,9.43-5.09,7.46-17.31-1.52-21.6-.36-.17-.79.05-.85.44-2.74,17.6-8.92,18.53-25.22,21.24-.36.06-.5.51-.23.76,2.99,2.73,6.24,5.12,9.76,7.15,1.31.76,3.38,1.18,4.91,2.04.13.07.18.23.13.36-.05.14-.2.22-.34.19-8.52-1.75-16.69-4.54-24.5-8.37-.31-.15-.63-.2-.96-.14l-36.1,6.37c-.49.09-.66.71-.27,1.03,5.79,4.8,11.74,7.74,18.49,10.97.13.06.19.21.15.34-.04.14-.18.22-.32.2-11.04-1.69-19.11-5.77-29.08-10.25-.35-.16-.72-.21-1.1-.14l-46.91,8.35c-1.01.18-1.12.59-.33,1.24,5.55,4.53,11.65,8.13,18.31,10.8.16.06.24.24.19.4-.04.17-.21.27-.38.24-10.21-1.86-19.84-5.35-28.88-10.46-.22-.12-.46-.16-.71-.12l-24.15,4.2c-1.36.24-1.53.83-.52,1.77,4.05,3.76,8.51,6.27,13.98,8.48.15.06.22.22.18.37-.05.15-.21.24-.36.21-8.58-1.89-16.84-4.71-24.77-8.47-.29-.14-.6-.18-.93-.12l-10.57,1.87c-.6.11-.63.29-.08.56,8.91,4.33,21.09,11.27,30.13,12.11,8.87.82,16.92-2.3,24.14-9.37h0Z"/>
  <path class="cls-8" d="M91.94,135.05c-7.22,7.07-15.27,10.19-24.14,9.37-9.04-.84-21.22-7.78-30.13-12.11-.55-.27-.52-.45.08-.56l10.57-1.87c.33-.06.64-.02.93.12,7.93,3.76,16.19,6.58,24.77,8.47.15.03.31-.06.36-.21.04-.15-.03-.31-.18-.37-5.47-2.21-9.93-4.72-13.98-8.48-1.01-.94-.84-1.53.52-1.77l24.15-4.2c.25-.04.49,0,.71.12,9.04,5.11,18.67,8.6,28.88,10.46.17.03.34-.07.38-.24.05-.16-.03-.34-.19-.4-6.66-2.67-12.76-6.27-18.31-10.8-.79-.65-.68-1.06.33-1.24l46.91-8.35c.38-.07.75-.02,1.1.14,9.97,4.48,18.04,8.56,29.08,10.25.14.02.28-.06.32-.2.04-.13-.02-.28-.15-.34-6.75-3.23-12.7-6.17-18.49-10.97-.39-.32-.22-.94.27-1.03l36.1-6.37c.33-.06.65,0,.96.14,7.81,3.83,15.98,6.62,24.5,8.37.14.03.29-.05.34-.19.05-.13,0-.29-.13-.36-1.53-.86-3.6-1.28-4.91-2.04-3.52-2.03-6.77-4.42-9.76-7.15-.27-.25-.13-.7.23-.76,16.3-2.71,22.48-3.64,25.22-21.24.06-.39.49-.61.85-.44,8.98,4.29,10.95,16.51,1.52,21.6-1.94,1.05-4.43,1.48-6.78,1.94-.39.07-.51.3-.38.67,4.35,11.93-4.8,23.61-17.08,22.46-5.33-.5-10.33-4.15-14.66-7.38-.52-.39-1.25.02-1.2.67,1.06,11.95-6.22,16.23-17.18,16.5-11.44.27-20.94-2.98-31.11-8.43-.29-.15-.64,0-.71.32-.46,2.1-.57,4.27-1.4,6.04-7.28,15.45-36.49,6.29-46.75-.29-.53-.33-1.01-.28-1.46.15h0Z"/>
  <path class="cls-1" d="M108.56,87.24c5.98.82,9.44,1.52,14.76-2.11.17-.12.34-.1.49.05.06.06.12.12.19.19.06.06.06.12,0,.17-4.76,3.45-9.95,4.23-15.58,2.34-.16-.05-.26-.22-.22-.39.04-.16.2-.27.37-.25h0Z"/>
  <path class="cls-1" d="M15.32,106.41c.65.03,1.15.18,1.52.43.27.2.39.47.36.81l-.78,7.89-.44-2.69c.1-1.25,1.13-6.16-1.07-5.85.2-.17.34-.37.41-.59h0Z"/>
  <path class="cls-17" d="M15.98,112.85l.44,2.69c1.19,10.48,6.71,14.59,16.39,19.02,4.49,2.05,8.98,4.12,13.45,6.21l-.33.53c-12.99-5.96-30.87-10-29.95-28.45h0Z"/>
  <path class="cls-4" d="M167.23,120.58c.59.12,1.06.34,1.43.65.26.21.23.38-.09.49-.43.14-.95-.03-1.58-.51.22-.27.3-.48.24-.63h0Z"/>
  <path class="cls-1" d="M195.78,127.82c-.17-.09-.34-.17-.51-.25-2.23,6.95-6.24,11.34-12.03,13.17-10.76,3.4-26.76.42-37.11-4.83-.56-.28-1.23-.05-1.49.52-4.97,11.01-14.14,12.19-25.65,11.48-8.81-.54-17.15-2.9-25.03-7.09-.47-.24-1.03-.18-1.44.15-8.55,7.13-18.2,9.63-28.95,7.5-5.73-1.13-12.04-4.43-17.64-7.17l.33-.53c7.63,3.85,12.64,6.07,15.04,6.65,11.98,2.89,22.47.36,31.46-7.57.18-.16.44-.18.65-.07,13.14,7.22,44.24,14.97,50.81-4.33.16-.47.69-.69,1.14-.47,13.77,6.82,43.05,13.13,48.94-7.22.1-.34.32-.47.66-.4.25.05.53.21.82.46h0Z"/>
  <g>
    <path class="cls-1" d="M90.24,22.91v-9.44h1.33l3.03,4.78c.7,1.11,1.25,2.1,1.69,3.07h.03c-.11-1.27-.14-2.42-.14-3.89v-3.95h1.15v9.44h-1.23l-3-4.79c-.66-1.05-1.29-2.13-1.77-3.15h-.04c.07,1.2.1,2.34.1,3.91v4.03h-1.15Z"/>
    <path class="cls-1" d="M100.92,14.22c.01.42-.29.76-.78.76-.43,0-.74-.34-.74-.76s.32-.77.77-.77.76.34.76.77ZM99.55,22.91v-6.78h1.23v6.78h-1.23Z"/>
    <path class="cls-1" d="M103.51,19.74c.03,1.67,1.09,2.35,2.33,2.35.88,0,1.41-.15,1.88-.35l.21.88c-.43.2-1.18.42-2.25.42-2.09,0-3.33-1.37-3.33-3.42s1.2-3.66,3.18-3.66c2.21,0,2.8,1.95,2.8,3.19,0,.25-.03.45-.04.57h-4.76ZM107.12,18.86c.01-.78-.32-2-1.71-2-1.25,0-1.79,1.15-1.89,2h3.6Z"/>
    <path class="cls-1" d="M115.69,12.96v8.19c0,.6.01,1.29.06,1.75h-1.11l-.06-1.18h-.03c-.38.76-1.2,1.33-2.31,1.33-1.64,0-2.9-1.39-2.9-3.45-.01-2.25,1.39-3.64,3.04-3.64,1.04,0,1.74.49,2.05,1.04h.03v-4.05h1.23ZM114.46,18.89c0-.15-.01-.36-.06-.52-.18-.78-.85-1.43-1.78-1.43-1.27,0-2.03,1.12-2.03,2.62,0,1.37.67,2.51,2,2.51.83,0,1.58-.55,1.81-1.47.04-.17.06-.34.06-.53v-1.18Z"/>
    <path class="cls-1" d="M118.42,19.74c.03,1.67,1.09,2.35,2.33,2.35.88,0,1.42-.15,1.88-.35l.21.88c-.43.2-1.18.42-2.25.42-2.09,0-3.33-1.37-3.33-3.42s1.2-3.66,3.18-3.66c2.21,0,2.8,1.95,2.8,3.19,0,.25-.03.45-.04.57h-4.76ZM122.03,18.86c.01-.78-.32-2-1.71-2-1.25,0-1.79,1.15-1.89,2h3.6Z"/>
    <path class="cls-1" d="M124.75,18.24c0-.8-.01-1.48-.06-2.12h1.08l.04,1.33h.06c.31-.91,1.05-1.48,1.88-1.48.14,0,.24.01.35.04v1.16c-.13-.03-.25-.04-.42-.04-.87,0-1.48.66-1.65,1.58-.03.17-.06.36-.06.57v3.61h-1.22v-4.66Z"/>
    <path class="cls-1" d="M129.38,17.96c0-.7-.01-1.27-.06-1.83h1.09l.07,1.12h.03c.34-.64,1.12-1.27,2.24-1.27.94,0,2.4.56,2.4,2.89v4.05h-1.23v-3.91c0-1.09-.41-2-1.57-2-.81,0-1.44.57-1.65,1.26-.06.15-.08.36-.08.57v4.08h-1.23v-4.94Z"/>
    <path class="cls-1" d="M137.15,12.96h1.23v4.23h.03c.2-.35.5-.66.88-.87.36-.21.8-.35,1.26-.35.91,0,2.37.56,2.37,2.9v4.03h-1.23v-3.89c0-1.09-.41-2.02-1.57-2.02-.8,0-1.43.56-1.65,1.23-.07.17-.08.35-.08.59v4.09h-1.23v-9.95Z"/>
    <path class="cls-1" d="M148.67,22.91l-.1-.85h-.04c-.38.53-1.11,1.01-2.07,1.01-1.37,0-2.07-.97-2.07-1.95,0-1.64,1.46-2.54,4.08-2.52v-.14c0-.56-.15-1.57-1.54-1.57-.63,0-1.29.2-1.76.5l-.28-.81c.56-.36,1.37-.6,2.23-.6,2.07,0,2.58,1.41,2.58,2.77v2.54c0,.59.03,1.16.11,1.62h-1.12ZM148.49,19.45c-1.34-.03-2.87.21-2.87,1.53,0,.8.53,1.18,1.16,1.18.88,0,1.44-.56,1.64-1.13.04-.13.07-.27.07-.39v-1.18Z"/>
    <path class="cls-1" d="M151.67,12.96h1.23v9.95h-1.23v-9.95Z"/>
    <path class="cls-1" d="M154.97,12.96h1.23v9.95h-1.23v-9.95Z"/>
    <path class="cls-1" d="M163.53,14.95h-.03l-1.58.85-.24-.94,1.99-1.06h1.05v9.1h-1.19v-7.96Z"/>
    <path class="cls-1" d="M168.75,22.04c.27.03.57,0,.99-.04.71-.1,1.39-.39,1.91-.88.6-.55,1.04-1.34,1.21-2.42h-.04c-.5.62-1.23.98-2.14.98-1.64,0-2.69-1.23-2.69-2.79,0-1.72,1.25-3.24,3.11-3.24s3.01,1.51,3.01,3.84c0,2-.67,3.4-1.57,4.27-.7.69-1.67,1.11-2.65,1.22-.45.07-.84.08-1.13.07v-1.01ZM169.19,16.8c0,1.13.69,1.93,1.75,1.93.83,0,1.47-.41,1.79-.95.07-.11.11-.25.11-.45,0-1.55-.57-2.75-1.86-2.75-1.05,0-1.79.92-1.79,2.21Z"/>
    <path class="cls-1" d="M180.41,14.67c-.25-.01-.57,0-.92.06-1.93.32-2.96,1.74-3.17,3.24h.04c.43-.57,1.19-1.05,2.2-1.05,1.61,0,2.75,1.16,2.75,2.94,0,1.67-1.13,3.21-3.03,3.21s-3.22-1.51-3.22-3.88c0-1.79.64-3.21,1.54-4.1.76-.74,1.77-1.2,2.91-1.34.36-.06.67-.07.9-.07v1.01ZM180.06,19.93c0-1.3-.74-2.09-1.88-2.09-.74,0-1.43.46-1.76,1.12-.08.14-.14.32-.14.55.03,1.5.71,2.61,2,2.61,1.06,0,1.78-.88,1.78-2.19Z"/>
    <path class="cls-1" d="M187.59,14.67c-.25-.01-.57,0-.92.06-1.93.32-2.96,1.74-3.17,3.24h.04c.43-.57,1.19-1.05,2.2-1.05,1.61,0,2.75,1.16,2.75,2.94,0,1.67-1.13,3.21-3.03,3.21s-3.22-1.51-3.22-3.88c0-1.79.64-3.21,1.54-4.1.76-.74,1.77-1.2,2.91-1.34.36-.06.67-.07.9-.07v1.01ZM187.24,19.93c0-1.3-.74-2.09-1.88-2.09-.74,0-1.43.46-1.76,1.12-.08.14-.14.32-.14.55.03,1.5.71,2.61,2,2.61,1.06,0,1.78-.88,1.78-2.19Z"/>
    <path class="cls-1" d="M193.62,19.74c.03,1.67,1.09,2.35,2.33,2.35.88,0,1.42-.15,1.88-.35l.21.88c-.43.2-1.18.42-2.25.42-2.09,0-3.33-1.37-3.33-3.42s1.21-3.66,3.18-3.66c2.21,0,2.8,1.95,2.8,3.19,0,.25-.03.45-.04.57h-4.76ZM197.24,18.86c.01-.78-.32-2-1.71-2-1.25,0-1.79,1.15-1.89,2h3.6Z"/>
    <path class="cls-1" d="M199.49,22.18c0-.52.35-.88.84-.88s.83.36.83.88-.32.88-.84.88c-.49,0-.83-.38-.83-.88Z"/>
    <path class="cls-1" d="M204.8,22.91l-3.08-9.44h1.32l1.47,4.65c.41,1.27.76,2.42,1.01,3.53h.03c.27-1.09.66-2.28,1.08-3.52l1.6-4.66h1.3l-3.38,9.44h-1.34Z"/>
    <path class="cls-1" d="M209.43,22.18c0-.52.35-.88.84-.88s.83.36.83.88-.32.88-.84.88c-.49,0-.83-.38-.83-.88Z"/>
  </g>
  <g>
    <path class="cls-1" d="M19.1,96.1c.59-.25,1.28-.75,1.76-1.44.71-1.02.59-2-.19-2.54-.72-.5-1.43-.38-2.56.38-1.33.95-2.53,1.27-3.62.51-1.21-.84-1.4-2.47-.35-3.97.55-.79,1.14-1.24,1.57-1.45l.62.85c-.31.16-.91.51-1.39,1.21-.74,1.06-.39,1.9.14,2.27.72.5,1.41.28,2.57-.5,1.42-.96,2.52-1.18,3.65-.39,1.19.83,1.61,2.44.33,4.27-.52.75-1.31,1.41-1.87,1.63l-.66-.84Z"/>
    <path class="cls-1" d="M26.95,87.02c-.05.36-.27,1.07-.79,1.82-1.17,1.68-3.07,1.97-4.77.79-1.71-1.2-2.13-3.23-.87-5.05.42-.6.93-1.02,1.27-1.2l.62.78c-.3.14-.7.44-1.08.99-.89,1.27-.43,2.62.73,3.43,1.29.9,2.66.62,3.43-.48.4-.57.52-1.06.59-1.43l.88.36Z"/>
    <path class="cls-1" d="M19.83,80.29l.71-1.01,3.47,2.42.02-.02c-.18-.36-.25-.79-.21-1.22.04-.42.17-.86.44-1.23.52-.75,1.81-1.62,3.73-.28l3.31,2.31-.71,1.01-3.19-2.23c-.9-.63-1.89-.82-2.55.13-.46.65-.36,1.49.06,2.06.1.15.24.27.44.41l3.35,2.34-.71,1.01-8.15-5.7Z"/>
    <path class="cls-1" d="M25.8,73.92c-.32-.22-.4-.67-.18-.99s.65-.39.98-.15c.31.22.43.64.19.97-.24.34-.68.39-1,.18ZM34.17,73.9c.58.4,1.09.74,1.55,1.01l-.63.9-.95-.58-.02.02c.26.58.44,1.57-.25,2.56-.61.87-1.82,1.58-3.77.22l-3.25-2.27.71-1.01,3.08,2.15c1.06.74,1.99.91,2.63,0,.47-.68.33-1.48.01-1.97-.11-.16-.27-.32-.45-.45l-3.41-2.38.71-1.01,4.04,2.82ZM27.29,71.78c-.32-.22-.41-.66-.18-.98s.65-.39.98-.15c.31.22.43.64.19.97-.24.34-.68.38-.99.17Z"/>
    <path class="cls-1" d="M30.55,67.07l1.6,1.12,1.01-1.45.77.54-1.01,1.45,3,2.09c.69.48,1.22.56,1.61,0,.18-.26.29-.48.34-.63l.79.48c-.06.25-.21.6-.49.99-.33.47-.74.75-1.19.79-.5.08-1.07-.16-1.72-.62l-3.03-2.12-.6.86-.77-.54.6-.86-1.33-.93.42-1.17Z"/>
    <path class="cls-1" d="M38.48,69.71l-1.52-4.8c-.13-.45-.23-.86-.36-1.33l-.02-.02-2.1,3.01-.81-.57,2.96-4.24.62.45,1.49,4.73c.15.45.27.87.38,1.32l.02.02,2.27-3.25.8.56-3.15,4.51-.58-.41Z"/>
    <path class="cls-1" d="M40.68,62.28c1.38.93,2.55.45,3.26-.56.51-.72.68-1.25.79-1.74l.84.33c-.09.47-.33,1.21-.95,2.09-1.2,1.71-3.03,1.95-4.71.78-1.68-1.17-2.31-3.08-1.18-4.7,1.27-1.81,3.2-1.18,4.22-.47.21.14.35.28.45.36l-2.73,3.9ZM42.02,58.81c-.63-.46-1.83-.88-2.62.25-.71,1.02-.08,2.13.56,2.7l2.06-2.95Z"/>
    <path class="cls-1" d="M42.84,56.07c-.57-.4-1.05-.72-1.54-1l.62-.9.96.58.02-.02c-.34-.64-.4-1.65.24-2.57.54-.77,1.83-1.64,3.74-.31l3.32,2.32-.71,1.01-3.2-2.24c-.9-.63-1.88-.81-2.54.14-.46.67-.35,1.51.09,2.08.09.13.25.28.42.4l3.34,2.33-.71,1.01-4.05-2.83Z"/>
    <path class="cls-1" d="M45.96,48.41l3.89,1.09c.63.17,1.2.34,1.74.55l.03-.03c-.37-.45-.72-.93-1.1-1.47l-2.37-3.26.74-1.06,4.03,6.06-.67.96-7.04-1.77.75-1.08Z"/>
    <path class="cls-1" d="M52.81,44.9c1.38.93,2.56.45,3.26-.56.51-.72.68-1.25.79-1.74l.84.33c-.09.47-.33,1.21-.95,2.09-1.19,1.71-3.03,1.95-4.71.78-1.68-1.17-2.31-3.08-1.18-4.7,1.27-1.81,3.2-1.18,4.22-.47.21.14.35.28.45.36l-2.73,3.9ZM54.16,41.43c-.64-.46-1.83-.88-2.62.25-.71,1.02-.09,2.13.56,2.7l2.06-2.95Z"/>
    <path class="cls-1" d="M55.21,38.86c-.65-.46-1.22-.84-1.77-1.17l.62-.88,1.12.73.03-.05c-.57-.77-.62-1.71-.14-2.39.08-.11.15-.19.23-.26l.95.67c-.1.09-.18.18-.28.32-.5.71-.31,1.59.35,2.26.12.12.27.25.44.37l2.96,2.07-.7,1-3.82-2.67Z"/>
    <path class="cls-1" d="M59.37,35.51c1.38.93,2.55.45,3.26-.56.5-.72.68-1.25.79-1.74l.84.33c-.09.47-.33,1.21-.95,2.09-1.2,1.71-3.03,1.95-4.71.78-1.68-1.17-2.31-3.08-1.18-4.7,1.27-1.81,3.2-1.18,4.22-.47.21.14.35.28.45.36l-2.73,3.9ZM60.72,32.05c-.63-.46-1.83-.88-2.62.25-.71,1.02-.08,2.13.56,2.7l2.06-2.95Z"/>
    <path class="cls-1" d="M59.26,26.04c.35.23.45.67.17,1.08-.25.36-.7.42-1.05.18-.36-.25-.45-.71-.19-1.07.26-.38.71-.43,1.06-.18ZM65.59,32.14l-5.56-3.88.71-1.01,5.56,3.88-.71,1.01Z"/>
    <path class="cls-1" d="M63.41,26.62c-.57-.4-1.05-.72-1.54-1l.63-.9.96.58.02-.02c-.34-.64-.4-1.65.24-2.57.54-.77,1.83-1.64,3.74-.31l3.32,2.32-.71,1.01-3.2-2.24c-.9-.63-1.87-.81-2.54.14-.46.67-.36,1.51.09,2.08.09.13.25.28.42.4l3.34,2.33-.71,1.01-4.05-2.83Z"/>
  </g>
</svg>